<svg width="24" height="24" viewBox="0 0 24 24" fill="none" xmlns="http://www.w3.org/2000/svg">
<path d="M4.10557 16.5624L3.27558 16.0047L3.27558 16.0047L4.10557 16.5624ZM5.26855 12.835L4.26855 12.8242V12.835H5.26855ZM5.29296 10.5814L6.29296 10.5922V10.5814H5.29296ZM19.9006 16.5805L20.7412 16.0388L20.7412 16.0388L19.9006 16.5805ZM18.7814 12.835L17.7814 12.8236V12.835H18.7814ZM18.8058 10.6931L19.8058 10.7045V10.6931H18.8058ZM9.33333 20C8.78105 20 8.33333 20.4477 8.33333 21C8.33333 21.5523 8.78105 22 9.33333 22V20ZM14.6667 22C15.219 22 15.6667 21.5523 15.6667 21C15.6667 20.4477 15.219 20 14.6667 20V22ZM4.93556 17.1202C5.60782 16.1199 6.26855 14.6372 6.26855 12.835H4.26855C4.26855 14.1434 3.7869 15.2438 3.27558 16.0047L4.93556 17.1202ZM6.26849 12.8459L6.2929 10.5922L4.29302 10.5706L4.26861 12.8242L6.26849 12.8459ZM20.7412 16.0388C20.2508 15.2779 19.7814 14.1648 19.7814 12.835H17.7814C17.7814 14.6372 18.415 16.1213 19.0601 17.1222L20.7412 16.0388ZM19.7814 12.8464L19.8058 10.7045L17.8059 10.6817L17.7815 12.8236L19.7814 12.8464ZM19.8058 10.6931C19.8058 6.01072 16.4227 2 12 2V4C15.0948 4 17.8058 6.8779 17.8058 10.6931H19.8058ZM19.4933 18.625C20.2957 18.625 20.7284 18.0028 20.8809 17.5978C21.042 17.1701 21.0779 16.5612 20.7412 16.0388L19.0601 17.1222C19.0102 17.0448 19.0016 16.9807 19.0003 16.9546C18.9989 16.9285 19.0027 16.9102 19.0092 16.893C19.0147 16.8785 19.0364 16.8268 19.1034 16.7673C19.1782 16.7009 19.314 16.625 19.4933 16.625V18.625ZM6.29296 10.5814C6.29296 6.8279 8.95974 4 12 4V2C7.63187 2 4.29296 5.96072 4.29296 10.5814H6.29296ZM4.50763 16.625C4.69077 16.625 4.82791 16.7038 4.90175 16.7706C4.96767 16.8302 4.98774 16.8808 4.99217 16.8929C4.99767 16.908 5.00119 16.9244 4.99964 16.9498C4.9981 16.9749 4.98888 17.0409 4.93556 17.1202L3.27558 16.0047C2.9229 16.5295 2.95643 17.1489 3.11355 17.5791C3.26164 17.9845 3.6924 18.625 4.50763 18.625V16.625ZM19.4933 16.625H4.50763V18.625H19.4933V16.625ZM9.33333 22H14.6667V20H9.33333V22Z" fill="black"/>
</svg>
