<svg width="20" height="22" viewBox="0 0 20 22" fill="none" xmlns="http://www.w3.org/2000/svg">
<path d="M2.26827 12.835L1.26827 12.8242V12.835H2.26827ZM2.29268 10.5814L3.29268 10.5922V10.5814H2.29268ZM15.7811 12.835L14.7811 12.8236V12.835H15.7811ZM15.8055 10.6931L16.8055 10.7045V10.6931H15.8055ZM6.33305 20C5.78077 20 5.33305 20.4477 5.33305 21C5.33305 21.5523 5.78077 22 6.33305 22V20ZM11.6664 22C12.2187 22 12.6664 21.5523 12.6664 21C12.6664 20.4477 12.2187 20 11.6664 20V22ZM1.93528 17.1202C2.60754 16.1199 3.26827 14.6372 3.26827 12.835H1.26827C1.26827 14.1434 0.786616 15.2438 0.275296 16.0047L1.93528 17.1202ZM3.26821 12.8459L3.29268 10.5922L1.29274 10.5706L1.26827 12.8242L3.26821 12.8459ZM17.7409 16.0388C17.2505 15.2779 16.7811 14.1648 16.7811 12.835H14.7811C14.7811 14.6372 15.4147 16.1213 16.0598 17.1222L17.7409 16.0388ZM16.7811 12.8464L16.8055 10.7045L14.8056 10.6817L14.7811 12.8236L16.7811 12.8464ZM16.8055 10.6931C16.8055 6.01072 13.4224 2 8.99972 2V4C12.0945 4 14.8055 6.8779 14.8055 10.6931H16.8055ZM16.493 18.625C17.2954 18.625 17.7281 18.0028 17.8806 17.5978C18.0417 17.1701 18.0776 16.5612 17.7409 16.0388L16.0598 17.1222C16.0099 17.0448 16.0013 16.9807 16 16.9546C15.9986 16.9285 16.0024 16.9102 16.0089 16.893C16.0144 16.8785 16.0361 16.8268 16.1031 16.7673C16.1779 16.7009 16.3137 16.625 16.493 16.625V18.625ZM3.29268 10.5814C3.29268 6.8279 5.95946 4 8.99972 4V2C4.63159 2 1.29268 5.96072 1.29268 10.5814H3.29268ZM1.50735 16.625C1.69049 16.625 1.82763 16.7038 1.90147 16.7706C1.96739 16.8302 1.98746 16.8808 1.99189 16.8929C1.99739 16.908 2.00091 16.9244 1.99936 16.9498C1.99782 16.9749 1.9886 17.0409 1.93528 17.1202L0.275296 16.0047C-0.0773844 16.5295 -0.0438543 17.1489 0.113266 17.5791C0.261356 17.9845 0.692116 18.625 1.50735 18.625V16.625ZM16.493 16.625H1.50735V18.625H16.493V16.625ZM6.33305 22H11.6664V20H6.33305V22Z" fill="black"/>
<path d="M14.9997 9C17.2089 9 18.9997 7.20914 18.9997 5C18.9997 2.79086 17.2089 1 14.9997 1C12.7906 1 10.9997 2.79086 10.9997 5C10.9997 7.20914 12.7906 9 14.9997 9Z" fill="#643BDC" stroke="white" stroke-width="2"/>
</svg>
