<svg width="38" height="38" viewBox="0 0 38 38" fill="none" xmlns="http://www.w3.org/2000/svg">
<g id="trash-02">
<path id="Icon" d="M6.33301 9.77941H31.6663M15.833 26.5441V16.4853M22.1663 26.5441V16.4853M25.333 33.25H12.6663C10.9174 33.25 9.49967 31.7488 9.49967 29.8971V11.4559C9.49967 10.53 10.2086 9.77941 11.083 9.77941H26.9163C27.7908 9.77941 28.4997 10.53 28.4997 11.4559V29.8971C28.4997 31.7488 27.0819 33.25 25.333 33.25ZM15.833 9.77941H22.1663C23.0408 9.77941 23.7497 9.02883 23.7497 8.10294V6.42647C23.7497 5.50058 23.0408 4.75 22.1663 4.75H15.833C14.9586 4.75 14.2497 5.50058 14.2497 6.42647V8.10294C14.2497 9.02883 14.9586 9.77941 15.833 9.77941Z" stroke="black" stroke-width="2" stroke-linecap="round" stroke-linejoin="round"/>
</g>
</svg>
