<svg width="38" height="38" viewBox="0 0 38 38" fill="none" xmlns="http://www.w3.org/2000/svg">
<g id="edit-contained">
<path id="Icon" d="M17.5728 6.02235H8.56916C5.58563 6.02235 3.16699 8.4409 3.16699 11.4243V29.4312C3.16699 32.4146 5.58563 34.8332 8.56916 34.8332H26.5764C29.5599 34.8332 31.9786 32.4146 31.9786 29.4312L31.9786 20.4278M12.1706 25.8297L18.7222 24.5096C19.07 24.4395 19.3894 24.2683 19.6402 24.0173L34.3066 9.34335C35.0098 8.63981 35.0093 7.4994 34.3055 6.79645L31.1986 3.69319C30.4952 2.99053 29.3553 2.991 28.6524 3.69426L13.9845 18.3698C13.7342 18.6202 13.5632 18.9389 13.4931 19.286L12.1706 25.8297Z" stroke="black" stroke-width="2" stroke-linecap="round" stroke-linejoin="round"/>
</g>
</svg>
